<svg width="29.4" height="11.9" viewBox="0 0 294 119" fill="none" xmlns="http://www.w3.org/2000/svg">
<path fill-rule="evenodd" clip-rule="evenodd" d="M235.819 0C278.446 0 312.421 38.4792 282.422 68.7638C252.306 99.1664 202.835 118.999 146.911 118.999C90.9878 118.999 41.5173 99.1664 11.4012 68.7638C-18.598 38.4792 15.3766 0 58.0042 0H235.819Z" fill="#9F1D39"/>
<mask id="mask0_91_509" style="mask-type:alpha" maskUnits="userSpaceOnUse" x="0" y="0" width="294" height="119">
<path d="M235.819 0C278.446 0 312.421 38.4792 282.422 68.7638C252.306 99.1664 202.835 118.999 146.912 118.999C90.9879 118.999 41.5174 99.1664 11.4013 68.7638C-18.5979 38.4792 15.3767 0 58.0043 0H235.819Z" fill="#9F1D39"/>
</mask>
<g mask="url(#mask0_91_509)">
<rect x="-84.9995" y="47" width="270" height="119" rx="58" fill="#FD87FF"/>
</g>
<path d="M235.818 0C250.043 0 263.305 4.28612 273.547 11.1221C269.711 17.7159 262.57 22.1494 254.391 22.1494H44.7652C35.5912 22.1493 27.7197 16.5721 24.357 8.62305C33.9318 3.25805 45.6012 6.88749e-05 58.0035 0H235.818Z" fill="#F2F2F2"/>
</svg>
