<svg width="33.5" height="13.8" viewBox="0 0 335 138" fill="none" xmlns="http://www.w3.org/2000/svg">
<rect x="6.5" y="6.5" width="322" height="124.988" rx="53.5" fill="#F7F5F5" stroke="#F06E82" stroke-width="13"/>
<rect x="36.5063" y="59.1377" width="261.987" height="19.7126" rx="9.85631" fill="#D9D9D9"/>
<rect width="68.9721" height="19.3269" rx="9.66346" transform="matrix(-0.0015621 0.999999 -0.999999 -0.00162507 76.6995 35.0762)" fill="#D9D9D9"/>
<rect width="68.9721" height="19.3269" rx="9.66346" transform="matrix(-0.0015621 0.999999 -0.999999 -0.00162507 111.774 35.8057)" fill="#D9D9D9"/>
<rect width="68.9721" height="19.3269" rx="9.66346" transform="matrix(-0.0015621 0.999999 -0.999999 -0.00162507 154.007 36.5361)" fill="#D9D9D9"/>
<rect width="68.9721" height="19.3269" rx="9.66346" transform="matrix(-0.0015621 0.999999 -0.999999 -0.00162507 196.24 35.8057)" fill="#D9D9D9"/>
<rect width="68.9721" height="19.3269" rx="9.66346" transform="matrix(-0.0015621 0.999999 -0.999999 -0.00162507 238.473 35.0762)" fill="#D9D9D9"/>
<rect width="68.9721" height="19.3269" rx="9.66346" transform="matrix(-0.0015621 0.999999 -0.999999 -0.00162507 280.706 36.5361)" fill="#D9D9D9"/>
</svg>
