<svg width="78.1" height="17.9" viewBox="0 0 781 179" fill="none" xmlns="http://www.w3.org/2000/svg">
<path d="M688.054 0.00195312V178.997C688.178 178.998 688.302 179 688.426 179C739.553 179 781 138.929 781 89.5C781 40.0705 739.553 0 688.426 0C688.302 1.16096e-07 688.178 0.00148142 688.054 0.00195312Z" fill="currentColor"/>
<path d="M688 41.2282L688.481 139.971C688.554 139.971 688.627 139.972 688.701 139.972C718.854 139.825 743.191 117.6 743.058 90.3324C742.925 63.0648 718.373 41.0793 688.22 41.2262C688.146 41.2265 688.073 41.2276 688 41.2282Z" fill="#FF6F59"/>
<path d="M92.9453 0.00195312V178.997C92.8217 178.998 92.698 179 92.5742 179C41.4469 179 0 138.929 0 89.5C0 40.0705 41.4469 0 92.5742 0C92.698 1.15791e-07 92.8217 0.00148389 92.9453 0.00195312Z" fill="currentColor"/>
<path d="M93.0001 41.2282L92.5192 139.971C92.4461 139.971 92.3726 139.972 92.2994 139.972C62.1458 139.825 37.8091 117.6 37.9419 90.3324C38.0749 63.0648 62.6268 41.0793 92.7804 41.2262C92.8535 41.2265 92.927 41.2276 93.0001 41.2282Z" fill="#FF6F59"/>
</svg>
