<svg width="25" height="11" viewBox="0 0 25 11" fill="none" xmlns="http://www.w3.org/2000/svg">
<path d="M16.2054 0.338136C15.8761 0.620091 15.6291 2.02987 15.6291 3.51014C15.6291 5.83628 15.2174 6.40019 13.0768 7.38704C10.5246 8.44437 9.45426 8.44437 2.70312 7.24606C-0.260796 6.75264 -0.837113 7.5985 1.22116 9.29024C3.85575 11.6164 12.1712 11.5459 16.2877 9.21975C17.9344 8.30339 18.2637 8.30339 19.6633 9.36073C21.1453 10.4886 23.9445 10.841 24.9325 9.99513C25.2618 9.78366 24.3562 8.58535 22.8742 7.38704C21.4746 6.18872 19.9103 4.14454 19.4163 2.80525C18.5107 0.408625 17.2757 -0.578221 16.2054 0.338136Z" fill="black"/>
</svg>
