<svg width="71" height="31.2" viewBox="0 0 710 312" fill="none" xmlns="http://www.w3.org/2000/svg">
<path d="M305.914 216.956C331.939 250.036 382.061 250.036 408.086 216.956L577.396 1.7373C657.339 55.0715 710 146.082 710 249.394V310.894H0V249.394C1.22891e-06 144.952 53.8189 53.0813 135.236 0L305.914 216.956Z" fill="#FD87FF"/>
<path d="M119.5 191.487C119.493 189.831 118.144 188.493 116.487 188.5C114.831 188.507 113.493 189.856 113.5 191.513L116.5 191.5L119.5 191.487ZM116.5 191.5L113.5 191.513L113.75 251.263L116.75 251.25L119.75 251.238L119.5 191.487L116.5 191.5ZM116.75 251.25L113.75 251.263L114 311.013L117 311L120 310.988L119.75 251.238L116.75 251.25Z" fill="black" fill-opacity="0.22"/>
<path d="M594 191.987C593.993 190.331 592.644 188.993 590.987 189C589.331 189.007 587.993 190.356 588 192.013L591 192L594 191.987ZM591 192L588 192.013L588.25 251.763L591.25 251.75L594.25 251.738L594 191.987L591 192ZM591.25 251.75L588.25 251.763L588.5 311.513L591.5 311.5L594.5 311.488L594.25 251.738L591.25 251.75Z" fill="black" fill-opacity="0.22"/>
</svg>
