<svg width="71" height="32.8" viewBox="0 0 710 328" fill="none" xmlns="http://www.w3.org/2000/svg">
<path d="M546.456 0C643.474 49.0079 710 149.588 710 265.707V327.207H0V265.707C1.36338e-06 149.838 66.2406 49.4399 162.919 0.316406C214.678 43.9274 281.52 70.207 354.5 70.207C427.657 70.207 494.645 43.8003 546.456 0Z" fill="currentColor"/>
<path d="M569 186C569 183.515 566.985 181.5 564.5 181.5C562.015 181.5 560 183.515 560 186H564.5H569ZM158 186C158 183.515 155.985 181.5 153.5 181.5C151.015 181.5 149 183.515 149 186H153.5H158ZM564.5 186H560V327H564.5H569V186H564.5ZM153.5 186H149V327H153.5H158V186H153.5Z" fill="color-mix(in srgb, currentColor 80%, black)" fill-opacity="0.41"/>
</svg>
