<svg width="146" height="138" viewBox="0 0 146 138" fill="none" xmlns="http://www.w3.org/2000/svg">
<path d="M52.0806 58.9271C63.8179 49.3898 63.8179 49.3897 67.7303 58.4729C71.6427 67.5562 71.6427 67.5562 79.4676 57.5646L87.6481 47.119L95.8286 57.1105C103.653 66.6478 104.365 66.6478 107.922 58.4729C110.767 51.6605 111.478 53.9314 111.478 70.7353C111.711 103.492 112.112 127.394 101.852 138L110.102 134.978C112.927 132.577 115.638 131.559 116.458 132.955C117.88 134.772 121.081 129.322 123.216 121.601C125.705 113.426 129.973 107.068 132.819 107.068C136.376 107.068 137.087 102.981 135.664 91.6266C134.241 79.8185 134.953 76.6394 139.221 77.0935C148.824 78.0018 148.113 68.0103 137.798 52.1147C132.463 43.9398 128.195 33.4941 128.906 28.9525C130.685 17.1444 109.7 2.61127 90.4935 2.15711C81.6016 2.15711 64.8849 1.24878 53.1476 0.340464C41.4104 -0.567856 27.5391 0.34047 22.2039 3.06543C10.111 8.96951 6.19856 20.7777 15.8018 23.9568C22.9153 26.2276 27.1834 35.0176 20.7812 35.0176C17.9358 35.0176 0.000167261 69.8268 0.000167261 77.0934C0.000167261 78.91 8.7753 87.4163 12.332 87.4163C17.6672 87.4163 10.8223 91.6266 9.39964 102.526C8.33261 112.518 9.39964 116.151 13.3121 116.151C16.1575 116.151 19.3585 119.33 20.7812 122.964C21.8483 126.597 24.6936 129.776 27.539 129.776C30.0288 129.776 33.9412 132.047 36.4309 135.226C36.5969 135.438 36.7752 135.647 36.9656 135.852L49.9689 136.962C42.2126 129.399 42.6061 114.836 41.766 95.2599C40.3433 68.9186 40.699 68.0103 52.0806 58.9271Z" fill="black"/>
</svg>
