<svg width="106" height="90" viewBox="0 0 106 90" fill="none" xmlns="http://www.w3.org/2000/svg">
<path d="M10.5 71.9998C14 67.4998 17.829 58.3675 18.8271 65.5926C19.8649 72.0842 24.016 73.4752 42.0041 73.4752C54.8032 73.4752 64.1163 71.2819 65.5 68.4998C67.5858 63.7469 72.4273 67.8332 77 74.9998L85 89.4971C85.035 80.9944 87.7089 69.2826 85 59.671C83.2704 53.6431 82.8231 50.2911 87.666 50.2911C95.2763 50.2911 106 36.8444 106 27.5707C106 24.325 104.616 22.9339 102.887 24.325C101.157 25.716 93.8927 20.6155 86.9742 13.1966C72.7913 -1.64125 69.332 -3.03224 60.338 4.38669C56.8788 6.7051 54.1114 12.7329 54.1114 17.3698C54.1114 23.8613 52.0359 25.2523 45.8092 23.8613C34.0478 20.6155 12.6103 35.3045 5 51.9971C1.28239 60.2193 0.399128 71.9728 0 83.4998L10.5 71.9998Z" fill="black"/>
</svg>
