<svg width="131" height="109" viewBox="0 0 131 109" fill="none" xmlns="http://www.w3.org/2000/svg">
<path d="M64 16L66.5137 21.6792C68.3475 28.6571 71.6482 36.7368 73.8487 38.9403C76.0492 41.5111 83.3841 43.7147 89.9856 43.7147C101.722 43.7147 102.455 44.4492 102.455 55.4669C102.272 65.7365 106.153 75.4679 103.5 84L101.5 97C105.871 95.2002 108.888 97.0243 117.125 103.21C122.993 107.617 129.228 109.821 130.695 108.719C133.262 105.781 118.5 77.5 114.5 71C114.543 68.741 113.457 62.2057 113.457 52.5C115.658 31.5663 109.056 19.4757 91.8193 8.09071C77.1494 -1.82524 58.0786 -2.55976 41.2082 5.51991C24.3378 13.9668 16.6361 27.5553 17.0028 48.8563C17.3696 61.343 14.8023 71.6262 8.56763 82.644C-2.06805 101.741 -2.80154 110.556 6.36715 107.25C9.66787 106.148 15.5358 101.741 19.2033 98.0688C22.1427 95.1253 23.846 93.4925 25.7377 93.5593L24.5 69.5C24.4898 69.3539 25.7377 68 25.7377 61.5L28.372 43.7147H39.3744C53.6776 43.7147 62.1128 35.2678 62.4795 20.5775L64 16Z" fill="black"/>
</svg>
