<svg width="96" height="84" viewBox="0 0 96 84" fill="none" xmlns="http://www.w3.org/2000/svg">
<path d="M75.6 43.1351C76.4 43.1351 79.6 49.5991 82.8 57.6791C86.6165 66.8087 88.5165 75.4288 88.5506 84H92.4914C95.3864 53.0919 96.3718 8.38126 93.2 3.13911C90.8 -0.900887 89.2 -0.900887 86.8 2.33112C84.8 5.96712 75.6 6.37112 56.8 4.35112L29.6 1.92711L14.8 16.4711L0 31.4191L2.8 66.5671C3.27671 72.3448 3.96646 78.3018 4.78462 84H9.05202C9.13769 75.9056 11.0375 68.1074 14.8 60.5071C20.4 49.1951 22 48.3871 40.4 50.4071C51.2 51.2151 63.2 50.0031 67.2 47.5791C71.6 45.1551 75.2 43.1351 75.6 43.1351Z" fill="black"/>
</svg>
