<svg width="91" height="76" viewBox="0 0 91 76" fill="none" xmlns="http://www.w3.org/2000/svg">
<path d="M53.8802 40.4088C69.0802 42.0248 77.8802 45.2568 81.4802 50.5088C85.2121 55.674 86.8425 64.8912 86.7676 75.2434L90.2851 75.2693C91.2771 55.0364 90.1621 46.2704 85.4802 37.1768C81.4802 29.0968 79.8802 20.2088 81.4802 15.3608C83.4802 8.08883 82.6802 7.28084 73.4802 8.89684C66.2802 10.5128 63.0802 9.30083 63.0802 5.66483C63.0802 -1.20317 61.0802 -1.20317 50.6802 4.04883C45.4802 6.87683 43.0802 6.87683 43.0802 4.04883C43.0802 -4.43517 35.0802 0.41283 19.8802 18.5928C5.16562 36.1567 -0.881484 52.3087 0.102608 74.6038H5.5C5.2952 42.6034 17.5777 36.3756 53.8802 40.4088Z" fill="black"/>
</svg>
