<svg width="306" height="331" viewBox="0 0 306 331" fill="none" xmlns="http://www.w3.org/2000/svg">
<path d="M155.236 1.91113C170.367 1.91114 182.533 3.64423 192.311 9.55078C202.028 15.4208 209.678 25.5977 215.361 43.1318C215.94 44.9164 217.851 46.0073 219.719 45.4014C231.035 41.7304 248.191 45.4364 262.673 54.8906C277.091 64.3034 288.289 79.0459 288.289 96.8145C288.289 112.24 285.647 122.664 283.071 132.814C279.953 145.104 276.94 156.974 279.065 176.312C279.774 182.762 281.216 187.336 283.23 191.128C285.228 194.887 287.75 197.791 290.405 200.861C296.678 208.114 299.533 214.079 300.455 219.327C301.375 224.562 300.412 229.31 298.622 234.236C297.723 236.712 296.629 239.197 295.47 241.815C294.318 244.416 293.105 247.142 292.019 250.016C289.836 255.787 288.132 262.223 288.302 269.852C288.446 276.326 289.594 280.765 291.311 284.122C293.023 287.472 295.239 289.603 297.162 291.467C298.905 293.156 300.355 294.577 301.428 296.57C302.387 298.351 303.096 300.702 303.215 304.231C279.206 318.51 255.445 324.413 237.602 326.734C228.566 327.91 221.057 328.166 215.818 328.129C213.199 328.11 211.149 328.019 209.76 327.933C209.272 327.902 208.865 327.871 208.545 327.846C202.394 318.457 196.789 302.969 192.447 287.059C188.225 271.588 185.262 255.966 184.147 245.647C221.224 234.927 244.463 196.659 238.869 157.177C238.862 157.111 238.856 157.066 238.855 157.065C238.847 157.006 238.837 156.938 238.825 156.867C238.802 156.724 238.768 156.532 238.726 156.3C238.641 155.832 238.516 155.173 238.354 154.347C238.029 152.693 237.551 150.359 236.941 147.532C235.722 141.88 233.967 134.249 231.825 126.154C229.685 118.065 227.152 109.484 224.372 101.944C221.613 94.4595 218.541 87.801 215.264 83.7051L214.967 83.335L214.532 83.1465L213.484 82.6865C202.584 77.8419 189.327 70.3356 171.235 69.6201C152.46 68.8776 128.684 75.3961 96.5439 98.7061L94.5215 100.173L96.4668 101.74C112.393 114.574 115.837 131.598 115.101 146.049C114.539 157.075 111.55 166.455 109.864 171.146C108.704 169.449 107.964 167.318 107.408 164.814C107.004 162.992 106.713 161.066 106.402 159.045C106.096 157.051 105.769 154.97 105.292 152.961C104.34 148.95 102.732 144.941 99.1602 142.103C95.5807 139.257 90.3643 137.848 82.7676 138.271L80.54 138.396L81.0049 140.578L92.3633 193.891L92.3828 193.98L92.4102 194.067C96.4675 206.928 103.425 218.074 112.32 226.875C112.396 227.002 112.508 227.19 112.65 227.434C112.94 227.928 113.356 228.653 113.86 229.562C114.87 231.383 116.228 233.941 117.621 236.886C120.435 242.834 123.282 250.138 123.83 256.102C124.387 262.154 122.865 269.962 121.123 276.412C120.261 279.605 119.361 282.406 118.678 284.407C118.535 284.825 118.401 285.206 118.279 285.55C113.247 283.145 108.754 283.323 104.902 285.565C100.739 287.989 97.6891 292.626 95.4189 297.781C91.2708 307.202 89.277 319.42 88.3564 327.002C63.4854 321.297 44.2812 315.506 31.2148 311.106C24.5012 308.846 19.4078 306.953 15.999 305.627C14.2948 304.964 13.0113 304.444 12.1572 304.09C11.9449 304.002 11.7598 303.922 11.6006 303.855C11.4477 303.464 11.2371 302.916 10.9824 302.219C10.4154 300.667 9.62626 298.383 8.74805 295.479C6.99106 289.667 4.88077 281.38 3.47363 271.502C0.656499 251.725 0.67719 225.696 11.8701 200.384C20.6698 180.484 40.1553 157.936 40.1553 105.084C40.1553 74.4932 55.003 48.7306 76.8623 30.5693C98.7414 12.3917 127.559 1.91122 155.236 1.91113Z" fill="#FC909F" stroke="black" stroke-width="3.82184"/>
</svg>
