<svg width="240" height="200" viewBox="0 0 240 200" fill="none" xmlns="http://www.w3.org/2000/svg">
<path d="M210.178 51.3965C201.856 91.2936 103.5 96.8962 83.6782 96.8962C31.6557 102.823 56.6257 165.262 66.1781 196.396C58.6781 197.396 59.6782 206.396 30.6782 134.896C7.47816 77.6964 73.184 42.8337 122 30.9995C170.816 19.1653 189.5 2.50195 189.5 2.50195C210.178 11 215.117 27.7185 210.178 51.3965Z" fill="currentColor"/>
<path d="M205.135 124.947L189.316 71.5069L199.354 62.3644C210.11 99.4523 210.602 120.988 205.135 124.947Z" fill="currentColor"/>
<path d="M80.0004 170C74.4004 142.8 60.3337 147.667 51.0004 149L41.0004 105L81.5848 96.5056C82.3367 96.2656 83.1412 96.0955 84.0004 96L81.5848 96.5056C63.4336 102.299 75.9569 148.796 91.0004 168L80.0004 170Z" fill="currentColor"/>
<path d="M24.9895 67.3632C33.8349 62.9091 44.2813 65.4873 48.3989 67.3331L36.6281 82.2134C39.6633 77.3568 30.1337 70.2897 24.9895 67.3632Z" fill="currentColor"/>
<path d="M10 84.4999C21.6 77.6999 32.8333 79.9999 37 81.9999L32.5 97.5002C31.3 89.1002 17 85.3333 10 84.4999Z" fill="currentColor"/>
</svg>
