<svg width="200" height="320" viewBox="0 0 200 320" fill="none" xmlns="http://www.w3.org/2000/svg">
<g clip-path="url(#clip0_3_89)">
<path d="M154 319.5C139.6 299.5 128.333 260.834 127 241.5L58.5 212L30 319.5H154Z" fill="currentColor" stroke="black" stroke-width="4"/>
<mask id="mask0_3_89" style="mask-type:alpha" maskUnits="userSpaceOnUse" x="30" y="212" width="124" height="118">
<path d="M154 329.5C139.6 309.5 128.333 260.834 127 241.5L58.5 212L30 329.5H154Z" fill="currentColor"/>
</mask>
<g mask="url(#mask0_3_89)">
<g style="mix-blend-mode:multiply">
<ellipse cx="124" cy="210" rx="59" ry="54" fill="black"/>
</g>
</g>
<mask id="path-4-inside-1_3_89" fill="white">
<path d="M73.5831 24.1084C115.157 14.1477 156.932 39.6317 167.15 81.0762H167.153L167.251 81.4863C167.259 81.5185 167.268 81.5508 167.275 81.583C167.283 81.6129 167.289 81.643 167.296 81.6729L183.739 150.303C183.761 150.392 183.783 150.481 183.805 150.57C183.819 150.631 183.832 150.692 183.847 150.753L184.145 151.994L184.13 151.997C193.215 193.265 167.598 234.374 126.33 244.262C85.0623 254.149 43.596 229.113 32.9932 188.208L32.9786 188.212L15.9874 117.294L15.9903 117.293C6.31762 75.7177 32.0089 34.0692 73.5831 24.1084Z"/>
</mask>
<path d="M73.5831 24.1084C115.157 14.1477 156.932 39.6317 167.15 81.0762H167.153L167.251 81.4863C167.259 81.5185 167.268 81.5508 167.275 81.583C167.283 81.6129 167.289 81.643 167.296 81.6729L183.739 150.303C183.761 150.392 183.783 150.481 183.805 150.57C183.819 150.631 183.832 150.692 183.847 150.753L184.145 151.994L184.13 151.997C193.215 193.265 167.598 234.374 126.33 244.262C85.0623 254.149 43.596 229.113 32.9932 188.208L32.9786 188.212L15.9874 117.294L15.9903 117.293C6.31762 75.7177 32.0089 34.0692 73.5831 24.1084Z" fill="currentColor" stroke="black" stroke-width="4" />
<!-- <path d="M73.5831 24.1084L72.6511 20.2185L72.6511 20.2185L73.5831 24.1084ZM167.15 81.0762L163.267 82.0337L164.017 85.0762H167.15V81.0762ZM167.153 81.0762L171.045 80.1497L170.313 77.0762H167.153V81.0762ZM167.251 81.4863L163.36 82.4128L163.362 82.4232L167.251 81.4863ZM167.275 81.583L171.165 80.651V80.651L167.275 81.583ZM167.296 81.6729L163.405 82.6003L163.406 82.6049L167.296 81.6729ZM183.739 150.303L179.849 151.235L179.853 151.248L183.739 150.303ZM183.805 150.57L187.695 149.638V149.638L183.805 150.57ZM183.847 150.753L179.955 151.676L179.957 151.686L183.847 150.753ZM184.145 151.994L184.929 155.916L189.004 155.102L188.034 151.061L184.145 151.994ZM184.13 151.997L183.345 148.075L179.347 148.874L180.223 152.857L184.13 151.997ZM126.33 244.262L127.262 248.152H127.262L126.33 244.262ZM32.9932 188.208L36.8653 187.204L35.8546 183.305L31.9626 184.343L32.9932 188.208ZM32.9786 188.212L29.0887 189.144L30.0447 193.134L34.0092 192.077L32.9786 188.212ZM15.9874 117.294L14.7225 113.499L11.2429 114.659L12.0975 118.226L15.9874 117.294ZM15.9903 117.293L17.2552 121.088L20.7119 119.935L19.8862 116.387L15.9903 117.293ZM73.5831 24.1084L74.5151 27.9983C113.949 18.5503 153.575 42.7227 163.267 82.0337L167.15 81.0762L171.034 80.1186C160.29 36.5407 116.365 9.74507 72.6511 20.2185L73.5831 24.1084ZM167.15 81.0762V85.0762H167.153V81.0762V77.0762H167.15V81.0762ZM167.153 81.0762L163.262 82.0027L163.36 82.4128L167.251 81.4863L171.142 80.5598L171.045 80.1497L167.153 81.0762ZM167.251 81.4863L163.362 82.4232C163.369 82.4529 163.376 82.4783 163.381 82.4966C163.385 82.5139 163.389 82.5302 163.391 82.5363C163.393 82.5453 163.393 82.5448 163.392 82.5426C163.392 82.5396 163.389 82.5294 163.386 82.515L167.275 81.583L171.165 80.651C171.158 80.6205 171.151 80.5942 171.147 80.5751C171.142 80.5568 171.138 80.5402 171.136 80.533C171.133 80.523 171.133 80.5232 171.134 80.5243C171.134 80.5265 171.137 80.5359 171.14 80.5495L167.251 81.4863ZM167.275 81.583L163.386 82.515C163.383 82.5027 163.381 82.4942 163.38 82.4918C163.38 82.4901 163.38 82.49 163.382 82.4983C163.383 82.504 163.386 82.5188 163.39 82.5345C163.393 82.5511 163.399 82.5739 163.405 82.6003L167.296 81.6729L171.187 80.7454C171.19 80.7569 171.191 80.7647 171.192 80.7663C171.192 80.767 171.192 80.7668 171.19 80.7576C171.188 80.7509 171.185 80.7357 171.181 80.7191C171.177 80.7017 171.172 80.6782 171.165 80.651L167.275 81.583ZM167.296 81.6729L163.406 82.6049L179.849 151.235L183.739 150.303L187.629 149.371L171.186 80.7408L167.296 81.6729ZM183.739 150.303L179.853 151.248C179.886 151.384 179.893 151.411 179.915 151.502L183.805 150.57L187.695 149.638C187.674 149.551 187.636 149.399 187.626 149.357L183.739 150.303ZM183.805 150.57L179.915 151.502C179.915 151.502 179.915 151.504 179.917 151.511C179.919 151.518 179.921 151.527 179.924 151.542C179.93 151.567 179.941 151.62 179.955 151.676L183.847 150.753L187.739 149.83C187.738 149.825 187.736 149.817 187.728 149.781C187.721 149.752 187.709 149.698 187.695 149.638L183.805 150.57ZM183.847 150.753L179.957 151.686L180.255 152.928L184.145 151.994L188.034 151.061L187.736 149.82L183.847 150.753ZM184.145 151.994L183.36 148.072L183.345 148.075L184.13 151.997L184.914 155.919L184.929 155.916L184.145 151.994ZM184.13 151.997L180.223 152.857C188.841 192 164.542 230.993 125.398 240.372L126.33 244.262L127.262 248.152C170.654 237.755 197.589 194.531 188.036 151.137L184.13 151.997ZM126.33 244.262L125.398 240.372C86.2546 249.75 46.922 226.002 36.8653 187.204L32.9932 188.208L29.1212 189.212C40.27 232.223 83.87 258.548 127.262 248.152L126.33 244.262ZM32.9932 188.208L31.9626 184.343L31.9479 184.347L32.9786 188.212L34.0092 192.077L34.0239 192.073L32.9932 188.208ZM32.9786 188.212L36.8685 187.28L19.8773 116.362L15.9874 117.294L12.0975 118.226L29.0887 189.144L32.9786 188.212ZM15.9874 117.294L17.2523 121.089L17.2552 121.088L15.9903 117.293L14.7254 113.498L14.7225 113.499L15.9874 117.294ZM15.9903 117.293L19.8862 116.387C10.7115 76.9514 35.0807 37.4464 74.5151 27.9983L73.5831 24.1084L72.6511 20.2185C28.937 30.692 1.92375 74.4839 12.0943 118.199L15.9903 117.293Z" fill="black" mask="url(#path-4-inside-1_3_89)"/> -->
</g>
<defs>
<clipPath id="clip0_3_89">
<rect width="200" height="320" fill="white"/>
</clipPath>
</defs>
</svg>
