<svg width="72" height="64" viewBox="0 0 72 64" fill="none" xmlns="http://www.w3.org/2000/svg">
<path d="M2.04311 21.6645C1.71023 19.6497 3.42948 17.9921 5.35858 18.2314C10.1027 18.8205 26.4929 20.6284 37.3154 19.1397C47.1795 17.7828 61.1689 12.4834 65.3976 10.8171L65.5662 10.7559C67.3191 10.1836 69.3083 11.3269 69.4733 13.3298C69.8012 17.3099 69.4256 21.3209 68.36 25.1773C67.1708 29.4808 65.1456 33.5081 62.4 37.029C59.6544 40.5499 56.2421 43.4955 52.3581 45.6977C48.4741 47.8999 44.1938 49.3154 39.7626 49.8637C35.3315 50.4119 30.8353 50.0822 26.5316 48.893C22.2281 47.7037 18.2007 45.6786 14.6799 42.933C11.159 40.1874 8.21337 36.7751 6.01116 32.8911C4.03658 29.4086 2.69468 25.6072 2.04311 21.6645Z" fill="#171921" stroke="#171921" stroke-width="4"/>
<mask id="mask0_3_120" style="mask-type:alpha" maskUnits="userSpaceOnUse" x="3" y="12" width="65" height="37">
<path d="M67.3458 12.1918C67.8618 16.3623 67.5513 20.5936 66.432 24.6441C65.3127 28.6946 63.4066 32.485 60.8225 35.7988C58.2383 39.1127 55.0268 41.8851 51.3712 43.9578C47.7156 46.0305 43.6876 47.3628 39.5171 47.8788C35.3466 48.3948 31.1153 48.0843 27.0648 46.965C23.0143 45.8457 19.2239 43.9396 15.91 41.3554C12.5962 38.7713 9.82379 35.5598 7.75111 31.9042C5.67842 28.2486 4.34606 24.2206 3.83008 20.05L67.3458 12.1918Z" fill="#171921"/>
</mask>
<g mask="url(#mask0_3_120)">
<circle cx="40.0746" cy="52.3139" r="21.5" transform="rotate(-7.05286 40.0746 52.3139)" fill="#FC909F"/>
</g>
</svg>
