<svg width="79" height="64" viewBox="0 0 79 64" fill="none" xmlns="http://www.w3.org/2000/svg">
<rect x="3.68262" y="17.4707" width="70" height="24" rx="4" transform="rotate(-4 3.68262 17.4707)" fill="black"/>
<path d="M66.4089 20.218C66.0715 23.0815 63.7447 25.3 60.8684 25.5012C63.7447 25.3001 66.3576 27.1732 67.0903 29.9618L68.9301 36.9667L11.613 40.9747L12.46 33.7819C12.7974 30.9185 15.1242 28.6999 18.0005 28.4988C15.1242 28.6999 12.5113 26.8268 11.7786 24.0381L9.93884 17.0332L67.2559 13.0252L66.4089 20.218Z" fill="white"/>
<path d="M68.5135 11.649C72.0977 10.8796 75.5771 13.4483 75.8349 17.1341L76.8537 31.704C77.1114 35.3898 74.0233 38.4177 70.367 38.1546C63.2831 37.6448 49.7671 36.8746 40.1719 37.5455C30.5766 38.2165 17.2994 40.8603 10.3553 42.351C6.77122 43.1204 3.29178 40.5517 3.03398 36.8659L2.01515 22.296L2.00092 21.9524C1.95126 18.4242 4.95985 15.5905 8.50188 15.8454C15.5858 16.3552 29.1018 17.1254 38.697 16.4545C48.2922 15.7835 61.5695 13.1397 68.5135 11.649Z" stroke="black" stroke-width="4"/>
</svg>
