<svg width="64" height="64" viewBox="0 0 64 64" fill="none" xmlns="http://www.w3.org/2000/svg">
<path d="M20 26C20 16.5 24.8 11 32 11C39.2 11 44 16.5 44 26V28.5C43 20.2 38.5 14.6 32 14.6C25.5 14.6 21 20.2 20 28.5V26Z" fill="#C217A0" fill-opacity="0.5"/>
<path d="M27 15.6L28.3 5.5L30.3 12.4L32 2.5L33.8 12L36 4.5L37.4 15.8C35.7 14.9 33.9 14.4 32 14.4C30.2 14.4 28.5 14.8 27 15.6Z" fill="#FF2EC4"/>
<path d="M27 15.6C28.5 14.8 30.2 14.4 32 14.4C33.9 14.4 35.7 14.9 37.4 15.8L37.2 14.1C35.6 13.4 33.8 13 32 13C30.3 13 28.6 13.3 27.2 14L27 15.6Z" fill="#C217A0"/>
</svg>
