<svg width="49" height="7" viewBox="0 0 49 7" fill="none" xmlns="http://www.w3.org/2000/svg">
<path d="M36.6029 0.10962C36.8304 0.0841037 37.0579 0.0585878 37.2923 0.0322987C37.5598 0.0216401 37.8273 0.0109815 38.1029 0C38.4123 0.00193792 38.7217 0.00387584 39.0404 0.00587248C39.4008 0.0401091 39.7611 0.0743456 40.1324 0.10962C40.3462 0.152012 40.56 0.194404 40.7803 0.23808C41.0069 0.291938 41.2335 0.345796 41.4669 0.401286C41.6984 0.462472 41.9298 0.523658 42.1683 0.586698C42.3991 0.651477 42.6299 0.716256 42.8676 0.782998C43.0884 0.844062 43.3092 0.905127 43.5366 0.968042C43.8579 1.06394 43.8579 1.06394 44.1857 1.16177C44.3936 1.23117 44.6014 1.30058 44.8156 1.37208C45.0172 1.45158 45.2188 1.53107 45.4265 1.61298C45.6246 1.71217 45.8228 1.81137 46.027 1.91357C46.2133 2.02012 46.3995 2.12666 46.5915 2.23644C46.7618 2.34361 46.9321 2.45078 47.1076 2.5612C47.2516 2.66171 47.3957 2.76222 47.5441 2.86577C47.7184 3.01822 47.8926 3.17067 48.0722 3.32774C48.1818 3.46469 48.2914 3.60163 48.4044 3.74273C48.5122 3.89163 48.6201 4.04052 48.7312 4.19393C48.8053 4.33443 48.8795 4.47493 48.9559 4.61969C48.9704 4.8419 48.985 5.06412 49 5.29306C48.869 5.48427 48.7379 5.67548 48.6029 5.87248C48.3263 6.06369 48.0497 6.2549 47.7647 6.4519C47.5736 6.53103 47.3825 6.61016 47.1857 6.69169C46.9545 6.75209 46.7234 6.81249 46.4853 6.87472C46.2032 6.9067 45.9211 6.93867 45.6305 6.97162C45.1583 6.98567 45.1583 6.98567 44.6765 7C44.3434 6.99096 44.0104 6.98191 43.6673 6.97259C43.316 6.9403 42.9648 6.908 42.6029 6.87472C42.2299 6.81142 41.8568 6.74811 41.4724 6.68289C41.103 6.60149 40.7336 6.5201 40.3529 6.43624C40.0003 6.34451 39.6477 6.25279 39.2845 6.15828C38.9819 6.06396 38.6794 5.96965 38.3676 5.87248C38.1706 5.78851 37.9736 5.70453 37.7707 5.61801C37.6255 5.53662 37.4804 5.45522 37.3309 5.37136C37.0907 5.206 36.8504 5.04063 36.6029 4.87025C36.2899 4.69971 35.9769 4.52917 35.6544 4.35347C35.3851 4.19327 35.1157 4.03306 34.8382 3.86801C34.6854 3.75432 34.5325 3.64063 34.375 3.52349C34.2549 3.32195 34.2549 3.32195 34.1324 3.11633C34.0887 2.87861 34.045 2.64089 34 2.39597C34.0437 2.13758 34.0874 1.87919 34.1324 1.61298C34.449 1.26415 34.449 1.26415 34.7721 0.908277C35.0268 0.727405 35.2816 0.546532 35.5441 0.360179C35.8935 0.277494 36.2429 0.19481 36.6029 0.10962Z" fill="black"/>
<path d="M9.0219 0.155211C9.38999 0.114875 9.75807 0.0745399 10.1373 0.0329823C10.4702 0.0220981 10.803 0.011214 11.146 0C11.606 0.0163262 11.606 0.0163262 12.0753 0.0329823C12.3395 0.0733176 12.6037 0.113653 12.8759 0.155211C13.0787 0.236522 13.2815 0.317833 13.4904 0.401608C13.7282 0.556226 13.7282 0.556226 13.9708 0.713969C14.296 1.05202 14.296 1.05202 14.6277 1.3969C14.812 1.62738 14.812 1.62738 15 1.86253C14.9928 2.03667 14.9855 2.21082 14.9781 2.39024C14.9171 2.51797 14.8562 2.6457 14.7933 2.7773C14.6953 2.92104 14.5973 3.06477 14.4964 3.21286C14.364 3.36204 14.2317 3.51121 14.0953 3.66491C13.8386 3.89444 13.8386 3.89444 13.5766 4.1286C13.3585 4.28162 13.1404 4.43464 12.9156 4.59229C12.664 4.74147 12.4125 4.89065 12.1533 5.04435C11.8769 5.18648 11.6005 5.32861 11.3157 5.47506C11.0212 5.60438 10.7268 5.73371 10.4234 5.86696C10.1217 5.9758 9.81996 6.08465 9.50912 6.19678C9.19659 6.2877 8.88405 6.37861 8.56204 6.47228C8.24047 6.54591 7.91891 6.61954 7.58759 6.6954C7.25157 6.74982 6.91555 6.80424 6.56934 6.86031C6.20442 6.89424 5.83949 6.92818 5.4635 6.96314C5.09858 6.9753 4.73365 6.98747 4.35766 7C4.01035 6.99072 3.66304 6.98143 3.3052 6.97187C2.99492 6.93505 2.68464 6.89824 2.36496 6.86031C2.00252 6.74747 2.00252 6.74747 1.63276 6.63234C1.44081 6.53343 1.24886 6.43451 1.0511 6.33259C0.899343 6.21863 0.747591 6.10467 0.591241 5.98725C0.482847 5.8656 0.374453 5.74396 0.262774 5.61863C0.176058 5.38302 0.0893431 5.14741 0 4.90466C0.0867153 4.64856 0.173431 4.39246 0.262774 4.1286C0.399621 3.98135 0.536469 3.83409 0.677464 3.68237C0.851346 3.53256 1.02523 3.38274 1.20438 3.22838C1.37917 3.09201 1.55395 2.95564 1.73403 2.81513C1.94224 2.67492 2.15045 2.53471 2.36496 2.39024C2.63008 2.22314 2.89519 2.05604 3.16834 1.88387C3.48133 1.72317 3.79432 1.56247 4.11679 1.3969C4.48262 1.27525 4.84845 1.1536 5.22537 1.02827C5.42141 0.97525 5.61745 0.92223 5.81943 0.867603C6.02354 0.816904 6.22766 0.766205 6.43796 0.713969C6.65178 0.661029 6.86561 0.608089 7.08591 0.553544C7.3025 0.503405 7.51909 0.453266 7.74224 0.401608C7.95728 0.357031 8.17232 0.312454 8.39388 0.266526C8.60112 0.229792 8.80837 0.193058 9.0219 0.155211Z" fill="black"/>
</svg>
