<svg width="58" height="12" viewBox="0 0 58 12" fill="none" xmlns="http://www.w3.org/2000/svg">
<path d="M43.2678 0.130864C43.581 0.097126 43.8941 0.0633875 44.2168 0.0286266C44.3885 0.0212041 44.5601 0.0137817 44.737 0.00613427C44.9135 0.00410996 45.09 0.00208565 45.2718 0C45.5379 0.00303646 45.5379 0.00303647 45.8094 0.00613427C45.9835 0.0135567 46.1576 0.0209792 46.337 0.0286266C46.6587 0.0623651 46.9805 0.0961036 47.3119 0.130864C47.5443 0.196992 47.7767 0.263119 48.016 0.331251C48.2067 0.416272 48.3974 0.501293 48.5938 0.58889C48.7703 0.686957 48.9468 0.785023 49.1286 0.886062C49.2917 0.982329 49.4548 1.0786 49.6229 1.17778C49.78 1.24526 49.9371 1.31273 50.099 1.38226C50.2577 1.45153 50.4163 1.52081 50.5797 1.59218C50.7436 1.6799 50.9074 1.76762 51.0762 1.858C51.3577 2.03952 51.3577 2.03952 51.6449 2.2247C51.8862 2.40688 52.1275 2.58907 52.3761 2.77678C52.6413 2.99766 52.9064 3.21853 53.1795 3.4461C53.3137 3.56491 53.4478 3.68373 53.586 3.80615C53.7886 3.99432 53.7886 3.99432 53.9954 4.1863C54.1314 4.31895 54.2675 4.4516 54.4076 4.58827C54.613 4.80023 54.613 4.80023 54.8225 5.01647C54.9612 5.16993 55.1 5.32338 55.2429 5.48148C55.3801 5.64157 55.5173 5.80166 55.6586 5.9666C55.7912 6.1308 55.9239 6.29499 56.0605 6.46416C56.1882 6.627 56.3158 6.78985 56.4473 6.95763C56.5703 7.10923 56.6933 7.26082 56.8201 7.41702C56.9331 7.56817 57.0462 7.71931 57.1627 7.87504C57.3437 8.19848 57.5247 8.52192 57.7111 8.85516C57.7613 9.06563 57.8115 9.27611 57.8632 9.49296C57.8927 9.71029 57.9222 9.92762 57.9526 10.1515C57.9682 10.5299 57.9839 10.9082 58 11.298C57.857 11.6434 57.857 11.6434 57.7111 11.9959C57.3967 11.9979 57.3967 11.9979 57.0759 12C56.8089 11.8835 56.5419 11.767 56.2668 11.6469C56.1329 11.5073 55.999 11.3677 55.861 11.2238C55.6569 10.9616 55.6569 10.9616 55.4487 10.6941C55.3088 10.5011 55.1689 10.3081 55.0248 10.1092C54.8806 9.90409 54.7364 9.69899 54.5878 9.48767C54.4355 9.28055 54.2833 9.07342 54.1265 8.86002C53.9741 8.65599 53.8217 8.45195 53.6647 8.24174C53.5164 8.04414 53.3682 7.84655 53.2154 7.64296C53.01 7.3793 53.01 7.3793 52.8004 7.1103C52.5867 6.87368 52.3729 6.63706 52.1527 6.39327C51.9673 6.21963 51.7818 6.04599 51.5908 5.86709C51.4094 5.71774 51.2281 5.56839 51.0412 5.41452C50.8592 5.28316 50.6771 5.15181 50.4895 5.01647C50.194 4.80864 50.194 4.80864 49.8926 4.59661C49.6844 4.46886 49.4762 4.3411 49.2618 4.20947C49.0462 4.10241 48.8306 3.99535 48.6085 3.88504C48.3713 3.79777 48.1341 3.7105 47.8897 3.62058C47.6078 3.55491 47.3259 3.48923 47.0355 3.42156C46.5914 3.35813 46.5914 3.35813 46.1384 3.29342C45.8454 3.27273 45.5523 3.25204 45.2504 3.23072C44.9774 3.24421 44.7045 3.25771 44.4233 3.27161C44.201 3.34269 43.9787 3.41376 43.7496 3.48699C43.5549 3.58146 43.3601 3.67593 43.1595 3.77326C42.9811 3.87178 42.8028 3.97029 42.619 4.07179C42.4518 4.15322 42.2846 4.23464 42.1123 4.31853C41.6208 4.36171 41.6208 4.36171 41.1194 4.40577C40.8751 4.37698 40.6308 4.34819 40.3791 4.31853C40.2838 4.20337 40.1885 4.08821 40.0903 3.96956C40.0605 3.69605 40.0307 3.42254 40 3.14075C40.0298 2.83845 40.0596 2.53615 40.0903 2.2247C40.3137 1.94399 40.3137 1.94399 40.5416 1.65762C40.8902 1.4201 40.8902 1.4201 41.2457 1.17778C41.5198 0.983447 41.7939 0.789113 42.0762 0.58889C42.2486 0.503869 42.421 0.418848 42.5987 0.331251C42.9299 0.23206 42.9299 0.23206 43.2678 0.130864Z" fill="black"/>
<path d="M11.1539 0.195298C11.4725 0.146962 11.791 0.0986257 12.1192 0.0488246C12.5881 0.0246564 12.5881 0.0246564 13.0665 0C13.3696 0.0129792 13.6726 0.0259584 13.9849 0.0393309C14.2776 0.0908002 14.5703 0.142269 14.8719 0.195298C15.3021 0.353063 15.3021 0.353063 15.7411 0.514014C16.0028 0.65231 16.2646 0.790606 16.5343 0.933092C16.7606 1.08974 16.987 1.24638 17.2202 1.40778C17.3891 1.58053 17.5579 1.75329 17.7319 1.93128C17.8204 2.30365 17.9088 2.67602 18 3.05967C17.9115 3.37476 17.823 3.68984 17.7319 4.01447C17.5136 4.12904 17.2954 4.24362 17.0705 4.36166C16.8169 4.36166 16.5632 4.36166 16.3019 4.36166C16.1662 4.26141 16.0305 4.16116 15.8908 4.05787C15.7433 3.92897 15.5958 3.80007 15.4439 3.66727C15.1902 3.59566 14.9366 3.52405 14.6753 3.45027C14.3626 3.40731 14.05 3.36434 13.7279 3.32007C13.5664 3.29322 13.405 3.26637 13.2386 3.2387C12.9765 3.21453 12.9765 3.21453 12.709 3.18987C12.4209 3.19524 12.4209 3.19524 12.127 3.20072C11.9003 3.24011 11.6735 3.27949 11.4399 3.32007C10.9981 3.47582 10.9981 3.47582 10.5473 3.63472C10.3894 3.70107 10.2314 3.76742 10.0687 3.83578C9.82727 3.94571 9.82727 3.94571 9.58093 4.05787C9.33948 4.17451 9.33948 4.17451 9.09315 4.29351C8.93522 4.37508 8.77729 4.45665 8.61457 4.54069C8.32001 4.71076 8.02544 4.88083 7.72195 5.05606C7.49521 5.21897 7.26848 5.38188 7.03488 5.54973C6.74677 5.79947 6.74677 5.79947 6.45283 6.05425C6.27771 6.2279 6.10259 6.40156 5.92217 6.58047C5.76106 6.76486 5.59995 6.94926 5.43396 7.13924C5.2758 7.34512 5.11764 7.55099 4.95469 7.76311C4.80612 7.97257 4.65754 8.18203 4.50447 8.39783C4.3688 8.60102 4.23313 8.80421 4.09335 9.01356C3.96947 9.19706 3.8456 9.38056 3.71797 9.56962C3.50562 9.82741 3.29327 10.0852 3.07448 10.3508C2.82673 10.6516 2.82673 10.6516 2.57398 10.9584C2.4855 11.1661 2.39702 11.3737 2.30586 11.5877C2.15544 11.7918 2.15544 11.7918 2.00199 12C1.76604 11.9928 1.53009 11.9857 1.28699 11.9783C1.05104 11.8709 0.815094 11.7635 0.571996 11.6528C0.450335 11.442 0.328674 11.2312 0.203327 11.014C0.136229 10.7665 0.0691311 10.519 0 10.264C0.0984347 9.96863 0.0984347 9.96863 0.198858 9.66727C0.333791 9.46318 0.468724 9.2591 0.607746 9.04883C0.768486 8.81028 0.929225 8.57173 1.09484 8.32595C1.29982 8.04891 1.5048 7.77187 1.71599 7.48644C1.90594 7.23578 1.90594 7.23578 2.09974 6.98005C2.23707 6.80209 2.3744 6.62413 2.51589 6.44078C2.65886 6.25952 2.80184 6.07826 2.94915 5.8915C3.09668 5.7089 3.24422 5.52629 3.39623 5.33816C3.54727 5.15689 3.6983 4.97563 3.85392 4.78888C4.00335 4.61433 4.15277 4.43978 4.30673 4.25995C4.45194 4.09508 4.59715 3.93021 4.74676 3.76034C4.87916 3.61505 5.01155 3.46976 5.14796 3.32007C5.34594 3.12091 5.54392 2.92175 5.74789 2.71655C5.92153 2.57198 6.09518 2.42742 6.27408 2.27848C6.45252 2.15898 6.63095 2.03948 6.8148 1.91637C7.01978 1.80671 7.22476 1.69706 7.43595 1.58409C7.71171 1.44937 7.98748 1.31466 8.2716 1.17586C8.57981 1.04562 8.88801 0.91538 9.20556 0.781193C9.44294 0.694969 9.44294 0.694969 9.68511 0.607002C9.84539 0.555281 10.0057 0.50356 10.1708 0.450271C10.333 0.404396 10.4952 0.358522 10.6624 0.311257C10.8246 0.272991 10.9868 0.234724 11.1539 0.195298Z" fill="black"/>
</svg>
