<svg width="64" height="6" viewBox="0 0 64 6" fill="none" xmlns="http://www.w3.org/2000/svg">
<path d="M54.1528 0.115385C54.5374 0.0785401 54.5374 0.0785401 54.9298 0.0409512C55.1426 0.0274373 55.3554 0.0139234 55.5747 0C55.7883 0.00475961 56.0019 0.00951923 56.222 0.0144231C56.4356 0.0477404 56.6492 0.0810577 56.8693 0.115385C57.1039 0.197658 57.3385 0.279931 57.5802 0.364698C57.8148 0.472809 58.0494 0.58092 58.2912 0.692308C58.5135 0.812318 58.7359 0.932328 58.965 1.05598C59.1698 1.18075 59.3747 1.30552 59.5857 1.43407C59.851 1.60898 59.851 1.60898 60.1216 1.78743C60.2739 1.89928 60.4263 2.01113 60.5832 2.12637C60.9299 2.43643 60.9299 2.43643 61.2835 2.75275C61.4516 3.1444 61.4516 3.1444 61.6231 3.54396C61.8332 3.61467 62.0433 3.68538 62.2598 3.75824C62.6169 3.91327 62.6169 3.91327 62.9813 4.07143C63.0894 4.19518 63.1976 4.31893 63.3089 4.44643C63.4514 4.66061 63.4514 4.66061 63.5968 4.87912C63.7964 5.26261 63.7964 5.26261 64 5.65385C63.8319 5.7844 63.8319 5.7844 63.6604 5.91758C63.3733 5.94478 63.0862 5.97198 62.7903 6C62.4051 5.9728 62.0199 5.9456 61.6231 5.91758C61.395 5.84585 61.167 5.77411 60.932 5.70021C60.6979 5.60875 60.4637 5.5173 60.2224 5.42308C60.0044 5.33128 59.7864 5.23949 59.5619 5.14492C59.3456 5.05177 59.1294 4.95861 58.9066 4.86264C58.683 4.76541 58.4593 4.66817 58.2288 4.56799C58.0043 4.49116 57.7797 4.41433 57.5484 4.33517C57.3352 4.31205 57.1221 4.28893 56.9024 4.26511C56.6744 4.26647 56.4463 4.26783 56.2114 4.26923C55.9551 4.27512 55.6988 4.281 55.4348 4.28707C54.9683 4.31088 54.9683 4.31088 54.4924 4.33517C54.1735 4.37135 53.8546 4.40754 53.526 4.44482C53.1791 4.48989 52.8323 4.53495 52.4749 4.58139C52.1891 4.61696 52.1891 4.61696 51.8975 4.65326C51.7 4.67701 51.5025 4.70076 51.299 4.72523C50.9972 4.76043 50.9972 4.76043 50.6894 4.79633C50.4877 4.81821 50.2859 4.84009 50.0781 4.86264C49.8811 4.88103 49.6841 4.89943 49.4811 4.91838C49.1877 4.943 49.1877 4.943 48.8884 4.96811C48.5945 4.99105 48.5945 4.99105 48.2946 5.01446C48.0988 5.02861 47.903 5.04277 47.7012 5.05735C47.5054 5.0705 47.3095 5.08366 47.1078 5.09721C46.9119 5.10973 46.7159 5.12224 46.5141 5.13513C46.3185 5.14705 46.1229 5.15897 45.9213 5.17125C45.6258 5.18983 45.6258 5.18983 45.3243 5.20879C45.1224 5.22352 44.9206 5.23824 44.7126 5.25341C44.4107 5.27544 44.4107 5.27544 44.1027 5.29791C43.7144 5.32187 43.3262 5.34584 42.9261 5.37054C42.4055 5.40486 42.4055 5.40486 41.8743 5.43988C41.5561 5.42346 41.2379 5.40703 40.91 5.39011C40.5927 5.27832 40.2753 5.16654 39.9484 5.05136C39.584 4.82739 39.584 4.82739 39.2122 4.5989C39.1422 4.30517 39.0722 4.01143 39 3.70879C39.0153 3.54832 39.0306 3.38786 39.0464 3.22253C39.1011 3.0675 39.1559 2.91247 39.2122 2.75275C39.3195 2.61948 39.4267 2.48621 39.5372 2.3489C39.6751 2.23195 39.813 2.115 39.955 1.99451C40.0929 1.89183 40.2308 1.78916 40.3728 1.68338C40.6387 1.55997 40.6387 1.55997 40.91 1.43407C41.1653 1.38794 41.4206 1.34181 41.6836 1.29428C42.1411 1.23292 42.1411 1.23292 42.6078 1.17033C42.8884 1.14723 43.1691 1.12414 43.4582 1.10034C43.7527 1.08298 44.0472 1.06562 44.3507 1.04773C44.6807 1.02717 45.0108 1.0066 45.3508 0.985405C45.6922 0.964837 46.0336 0.944269 46.3854 0.923077C46.8857 0.893754 46.8857 0.893754 47.3961 0.863839C47.7288 0.842931 48.0614 0.822023 48.4042 0.800481C48.7362 0.777596 49.0681 0.754712 49.4102 0.731134C49.9089 0.687437 49.9089 0.687437 50.4177 0.642857C50.7591 0.599617 51.1005 0.556377 51.4523 0.511826C51.9454 0.441037 51.9454 0.441037 52.4484 0.368819C52.7422 0.32373 53.036 0.278641 53.3386 0.232186C53.6073 0.193641 53.876 0.155097 54.1528 0.115385Z" fill="black"/>
<path d="M6.96975 0C7.20463 0.0043716 7.43951 0.00874321 7.6815 0.0132473C7.97371 0.0357779 8.26592 0.0583084 8.56698 0.0815217C9.06626 0.120866 9.06626 0.120866 9.57563 0.161005C9.92046 0.193961 10.2653 0.226916 10.6206 0.26087C10.9243 0.299205 11.2281 0.337541 11.5411 0.377038C11.8602 0.419409 12.1794 0.46178 12.5082 0.505435C13.0377 0.575044 13.0377 0.575044 13.5778 0.64606C13.8846 0.680991 13.8846 0.680991 14.1977 0.716627C14.441 0.738401 14.6844 0.760175 14.9352 0.782609C15.25 0.800347 15.5648 0.818086 15.8892 0.836362C16.2379 0.852924 16.5867 0.869485 16.946 0.886549C17.304 0.904729 17.662 0.922909 18.0309 0.94164C18.5726 0.967838 18.5726 0.967838 19.1253 0.994565C19.4799 1.00648 19.8344 1.0184 20.1997 1.03068C20.534 1.04734 20.8682 1.06401 21.2126 1.08118C21.6725 1.1199 21.6725 1.1199 22.1416 1.15939C22.5173 1.23115 22.5173 1.23115 22.9006 1.30435C23.1406 1.50914 23.3806 1.71393 23.6279 1.92493C23.7165 2.15057 23.805 2.37622 23.8963 2.6087C23.9305 2.87772 23.9647 3.14674 24 3.42391C23.9658 3.67141 23.9315 3.91891 23.8963 4.17391C23.8274 4.31683 23.7585 4.45975 23.6876 4.607C23.5374 4.72234 23.3872 4.83768 23.2325 4.95652C22.9364 4.9878 22.6404 5.01907 22.3354 5.05129C22.058 5.05157 22.058 5.05157 21.7751 5.05186C21.5715 5.0473 21.3679 5.04274 21.1582 5.03804C20.943 5.03567 20.7279 5.03329 20.5062 5.03085C20.2756 5.0265 20.0449 5.02215 19.8073 5.01766C19.5603 5.00942 19.3133 5.00119 19.0589 4.9927C18.6605 4.97479 18.6605 4.97479 18.2541 4.95652C17.9637 4.93988 17.6733 4.92323 17.3741 4.90608C17.0698 4.88641 16.7655 4.86674 16.452 4.84647C16.1419 4.82488 15.8317 4.8033 15.5122 4.78106C15.1986 4.75826 14.8849 4.73545 14.5618 4.71196C14.2471 4.68898 13.9324 4.66601 13.6082 4.64234C13.3004 4.61925 12.9926 4.59615 12.6755 4.57235C12.379 4.54944 12.0826 4.52653 11.7772 4.50293C11.505 4.48044 11.2329 4.45795 10.9525 4.43478C10.7252 4.41263 10.498 4.39048 10.2639 4.36765C10.0629 4.3471 9.86183 4.32654 9.65471 4.30537C9.29576 4.27275 8.93681 4.24013 8.56698 4.20652C8.23969 4.18702 7.9124 4.16751 7.57519 4.14742C7.26587 4.15616 6.95655 4.16491 6.63786 4.17391C6.31142 4.23646 5.98499 4.29901 5.64866 4.36345C5.33164 4.45156 5.01462 4.53966 4.68799 4.63043C4.39492 4.72594 4.10186 4.82144 3.79991 4.91984C3.53166 5.01803 3.26341 5.11622 2.98704 5.21739C2.74959 5.3102 2.51214 5.40302 2.2675 5.49864C2.06 5.578 1.85251 5.65736 1.63872 5.73913C1.31699 5.82522 0.995264 5.9113 0.663786 6C0.485808 5.87087 0.307831 5.74174 0.12446 5.6087C0.0833881 5.39348 0.0423163 5.17826 0 4.95652C0.124927 4.7524 0.249853 4.54828 0.378565 4.33798C0.582213 4.11166 0.78586 3.88535 0.995678 3.65217C1.27206 3.45276 1.54844 3.25335 1.83319 3.04789C1.98721 2.95088 2.14123 2.85386 2.29991 2.75391C2.45821 2.65756 2.61651 2.56122 2.7796 2.46196C3.0132 2.31593 3.0132 2.31593 3.25151 2.16695C3.40639 2.07027 3.56126 1.97359 3.72083 1.87398C3.87431 1.77978 4.0278 1.68558 4.18593 1.58853C4.41391 1.44786 4.41391 1.44786 4.6465 1.30435C4.79934 1.20687 4.95218 1.10939 5.10966 1.00896C5.25544 0.915768 5.40123 0.822577 5.55143 0.726562C5.80042 0.572884 6.04942 0.419205 6.30596 0.26087C6.52501 0.174783 6.74406 0.0886957 6.96975 0Z" fill="black"/>
</svg>
