<svg width="8" height="8" viewBox="0 0 8 8" fill="none" xmlns="http://www.w3.org/2000/svg">
<path d="M0.4553 0.839442C0.71175 0.548206 1.19872 0.220565 1.53873 0.109076C1.87874 -0.000137435 3.0659 -0.0342667 4.17526 0.0385424C5.28462 0.109076 6.58128 0.33888 7.05672 0.550481C7.54368 0.766633 7.95285 1.15343 7.99319 1.43557C8.03929 1.74728 7.84912 2.02259 7.48894 2.16366C7.14028 2.30017 6.17499 2.32293 5.0541 2.22054C3.43184 2.07037 3.16675 2.09995 2.96505 2.45262C2.80657 2.72793 2.91895 3.01234 3.32523 3.36273C3.65084 3.64259 4.28764 4.32972 4.74003 4.89399C5.19241 5.45599 5.8004 6.20001 6.09431 6.54357C6.38534 6.88714 6.56111 7.32172 6.48043 7.51057C6.39975 7.69714 6.23838 7.85414 6.12024 7.85414C6.0021 7.85641 5.6448 7.9133 5.32784 7.98383C4.87834 8.07939 4.40578 7.76995 3.16675 6.55723C2.29655 5.70627 1.22753 4.59821 0.795312 4.09765C0.268006 3.48787 0.00579298 2.8872 3.00685e-05 2.27742C-0.00285139 1.77686 0.201732 1.13068 0.4553 0.839442Z" fill="#0C0C0C"/>
</svg>
