<svg width="7" height="9" viewBox="0 0 7 9" fill="none" xmlns="http://www.w3.org/2000/svg">
<path d="M0.0134805 2.79234C-0.0390457 0.728524 0.0449963 0.333614 0.570258 0.117225C0.930939 -0.031543 1.57176 -0.0396576 2.11803 0.0982905C2.6643 0.233534 3.15805 0.612215 3.31213 1.01253C3.4557 1.38851 3.48021 2.27571 3.36465 2.98168C3.23159 3.79314 3.32964 4.6046 3.62728 5.18614C3.99847 5.90834 4.39767 6.17071 5.50072 6.41144C6.54424 6.63865 6.92243 6.86857 6.98896 7.31757C7.03799 7.64757 6.91893 8.16149 6.72633 8.45903C6.51623 8.78361 6.02598 9 5.50072 9C5.01748 9 4.19107 8.82959 3.6623 8.61861C3.13354 8.40763 2.27561 7.89101 1.75735 7.46905C1.24259 7.04709 0.650799 6.36546 0.444196 5.95703C0.241094 5.54859 0.0449963 4.12313 0.0134805 2.79234Z" fill="#0C0C0C"/>
</svg>
