<svg width="16" height="9" viewBox="0 0 16 9" fill="none" xmlns="http://www.w3.org/2000/svg">
<path d="M0.513079 2.44572C0.790937 1.97614 1.3419 1.23264 1.7385 0.79486C2.1351 0.357076 2.54595 0 2.65044 0C2.75731 0 3.00192 0.276367 3.19903 0.611431C3.48877 1.10791 3.50301 1.37205 3.27978 2.01772C3.12779 2.45551 2.80243 2.97644 2.55307 3.17944C2.23484 3.43869 2.12323 3.78842 2.17547 4.37784C2.21585 4.83519 2.40821 5.2901 2.60532 5.38793C2.80243 5.48576 3.49589 5.82571 4.14897 6.14366C5.18441 6.64748 5.6855 6.72085 8.06748 6.71596C10.6727 6.70862 10.8674 6.67193 12.2828 5.92354C13.6531 5.19716 13.7647 5.07488 13.7505 4.34116C13.741 3.90337 13.5296 3.21613 13.2826 2.81258C13.0357 2.40904 12.7364 1.915 12.6153 1.71201C12.4871 1.49678 12.4847 1.1177 12.6082 0.79486C12.7364 0.45735 13.0238 0.239681 13.3515 0.232344C13.6982 0.227452 14.1875 0.591865 14.7408 1.27178C15.211 1.85141 15.7121 2.70986 15.857 3.17944C16.0303 3.74685 16.047 4.40475 15.9021 5.13602C15.7715 5.8037 15.4248 6.49829 15.0234 6.90672C14.6601 7.27603 13.6127 7.863 12.6984 8.21518C11.4968 8.67743 10.4091 8.88776 8.77993 8.97336C7.54026 9.03939 6.09635 8.97825 5.57388 8.83884C5.05142 8.69944 3.98273 8.3497 3.19903 8.06355C2.41533 7.77495 1.52239 7.30293 1.21603 7.01189C0.912054 6.72085 0.510704 6.1779 0.325466 5.80859C0.142603 5.43929 -0.00463793 4.72269 0.000111769 4.21887C0.00486147 3.71505 0.235222 2.9153 0.513079 2.44572Z" fill="#0C0C0C"/>
</svg>
