<svg width="281" height="93" viewBox="0 0 281 93" fill="none" xmlns="http://www.w3.org/2000/svg">
<path d="M80.4268 34.4126C82.0286 34.0474 84.2067 34.1572 86.9297 34.7905C89.6246 35.4174 92.6971 36.5186 96.0107 37.9751C102.637 40.8878 110.035 45.1356 116.986 49.5356C123.927 53.929 130.373 58.4417 135.086 61.8589C137.441 63.5666 139.362 64.9993 140.691 66.0034C141.356 66.5053 141.873 66.8997 142.224 67.1685C142.399 67.3028 142.532 67.4062 142.621 67.4751C142.666 67.5095 142.7 67.5351 142.722 67.5522C142.733 67.5608 142.741 67.5676 142.746 67.5718C142.749 67.5738 142.751 67.5757 142.752 67.5767L142.753 67.5776H142.754L144.476 68.9185L145.661 67.0864L145.673 67.0688C145.682 67.0554 145.696 67.0343 145.714 67.0063C145.751 66.95 145.807 66.8646 145.882 66.7524C146.032 66.5274 146.258 66.1941 146.552 65.769C147.14 64.9185 148.005 63.7009 149.101 62.2456C151.294 59.331 154.398 55.4818 158.054 51.7183C161.719 47.9447 165.88 44.3176 170.18 41.7935C174.496 39.2597 178.759 37.9487 182.715 38.4819C225.153 44.204 256.381 63.0025 276.653 91.0005H3.35742C19.6571 61.6587 42.8402 42.9825 80.4268 34.4126Z" fill="#9287FF" stroke="black" stroke-width="4"/>
<path d="M68.5951 37.0849L73.7618 17.8529C73.971 17.0741 74.9787 16.854 75.5226 17.4493C90.3858 33.7135 109.142 33.0762 115.368 32.3297C116.213 32.2284 116.874 33.1531 116.477 33.906L103.32 58.859C103.119 59.2414 102.706 59.4518 102.283 59.3636C98.3342 58.5411 78.6599 53.7321 68.7111 37.8667C68.5654 37.6345 68.524 37.3496 68.5951 37.0849Z" fill="#E0DDFF" stroke="black" stroke-width="4"/>
<path d="M199.177 36.9814L187.596 17.4989C187.203 16.8374 186.235 16.8483 185.816 17.4937C180.079 26.3296 170.184 30.4 166.724 31.6024C166.102 31.8187 165.817 32.5584 166.152 33.1254L179.655 55.9402C179.856 56.2806 180.237 56.4651 180.618 56.3568C182.752 55.749 190.078 52.6851 199.164 38.0212C199.359 37.706 199.366 37.3001 199.177 36.9814Z" fill="#E0DDFF" stroke="black" stroke-width="4"/>
<path d="M125.482 54.5L116.482 33L109.482 48L125.482 54.5Z" fill="black" stroke="black" stroke-width="4" stroke-linejoin="round"/>
<path d="M156.982 53.5L165.982 32L172.982 47L156.982 53.5Z" fill="black" stroke="black" stroke-width="4" stroke-linejoin="round"/>
<path d="M86.4824 14L74.4824 17L84.4824 23.5L86.4824 14Z" fill="black" stroke="black" stroke-width="4" stroke-linejoin="round"/>
<path d="M175.982 14L186.982 17L179.982 23.5L175.982 14Z" fill="black" stroke="black" stroke-width="4" stroke-linejoin="round"/>
</svg>
