<svg width="52" height="16" viewBox="0 0 52 16" fill="none" xmlns="http://www.w3.org/2000/svg">
<path d="M36.4687 0.848893C31.7925 2.78928 30.4565 9.93343 34.0471 13.6378C35.9676 15.7546 37.3037 16.1956 40.7272 15.931C42.6478 15.7546 46.9899 11.1682 46.9899 9.31603C46.9899 8.61044 48.1589 6.84645 49.4949 5.43526C50.9145 3.93587 52 2.08368 52 1.37809C52 -0.650496 49.5784 -0.385899 47.9084 1.81909L46.4889 3.67127L43.6498 1.81909C40.4767 -0.209499 39.2242 -0.385899 36.4687 0.848893ZM41.8128 4.99426C42.0633 6.67005 41.7293 7.02285 39.9757 7.02285C38.2222 7.02285 37.8047 6.58185 37.8047 4.72967C37.8047 2.87748 38.1387 2.52468 39.7252 2.78928C40.8943 2.96568 41.6458 3.75947 41.8128 4.99426Z" fill="black"/>
<path d="M0.17707 0.537797C-0.578128 1.32392 1.184 4.55575 3.5335 6.39003C4.54043 7.2635 5.46345 8.92309 5.46345 9.97125C5.46345 13.0284 9.15552 16.0855 12.6798 15.9982C18.3857 15.8235 21.6582 10.1459 19.1409 4.64309C17.127 0.101064 10.6659 -1.20914 7.89686 2.28473C6.55429 4.03167 4.87607 3.76963 3.78523 1.76065C2.86221 0.0137167 1.184 -0.510365 0.17707 0.537797ZM14.2741 4.81779C14.2741 6.73942 11.6728 7.70023 10.3303 6.30268C8.90379 4.81779 10.2464 2.45943 12.3441 2.80881C13.6028 2.98351 14.2741 3.68228 14.2741 4.81779Z" fill="black"/>
</svg>
