<svg width="52" height="19" viewBox="0 0 52 19" fill="none" xmlns="http://www.w3.org/2000/svg">
<path d="M7.19663 0.489233C4.74119 0.893077 -0.783545 5.25458 0.093398 6.06227C0.444175 6.46611 1.5842 6.30458 2.46114 5.7392C4.03964 4.85074 4.21503 5.01228 4.21503 6.86996C4.21503 11.6353 8.16127 14.3007 12.3706 12.3622C14.3876 11.393 14.7383 10.6661 14.7383 8.00072C14.7383 4.93151 15.7907 3.80075 16.9307 5.57766C17.8076 6.86996 20 6.54688 20 5.17381C20 3.96229 11.8444 -0.156916 9.91516 0.00462151C9.47669 0.0853901 8.24897 0.327696 7.19663 0.489233Z" fill="black"/>
<path d="M37.548 1.18677C33.7817 2.75742 31.2416 5.07207 32.2051 5.98139C32.5554 6.31206 33.6065 6.14673 34.4824 5.56807C36.9348 4.16274 36.9348 4.24541 37.2852 7.63472C37.4604 9.78403 38.2487 11.1067 40.0004 12.264L42.3653 14L44.8178 12.264C46.4819 11.1067 47.2702 9.6187 47.6206 7.38672C47.8834 5.32007 48.3213 4.57607 48.7592 5.15473C49.7227 6.64272 52 6.47739 52 5.07207C52 3.58408 47.2702 0.773436 43.6791 0.112107C42.0149 -0.218557 39.8252 0.194774 37.548 1.18677Z" fill="black"/>
<path d="M6.10868 16.1164C5.82723 16.7253 6.10868 17.6387 6.76539 18.1461C9.5799 20.0744 15.1151 18.4506 13.8017 16.1164C13.4264 15.5074 11.7377 15 9.95517 15C8.17265 15 6.48394 15.5074 6.10868 16.1164Z" fill="black"/>
<path d="M38.2602 16.1362C37.2542 17.9953 39.2662 19.3381 42.5586 18.9249C44.6621 18.7184 45.7596 17.9953 45.9425 16.7559C46.2169 15.3099 45.5767 15 42.5586 15C40.5466 15 38.626 15.5164 38.2602 16.1362Z" fill="black"/>
</svg>
