<svg width="59" height="10" viewBox="0 0 59 10" fill="none" xmlns="http://www.w3.org/2000/svg">
<path d="M0 1.56094C0 2.60156 1.08696 3.12188 3.04348 3.12188C5.32609 3.12188 6.52174 3.85031 7.3913 5.72344C9.23913 9.67782 13.3696 11.1347 16.7391 9.05344C18.1522 8.11688 19.6739 6.34782 20.1087 5.20313C20.4348 4.05844 21.7391 3.12188 22.9348 3.12188C24.0217 3.12188 25 2.39344 25 1.56094C25 0.312188 22.9348 0 12.5 0C2.06522 0 0 0.312188 0 1.56094Z" fill="black"/>
<path d="M34 1.60629C34 2.57006 34.9584 3.21257 36.5556 3.21257C38.3658 3.21257 39.3242 3.96218 39.7501 5.88972C41.1344 11.4582 50.2921 11.3511 51.6763 5.67555C52.2088 3.85509 53.0606 3.21257 55.2968 3.21257C57.0005 3.21257 58.4913 2.46297 58.9173 1.60629C59.4497 0.214171 57.6395 0 46.7781 0C36.1297 0 34 0.321258 34 1.60629Z" fill="black"/>
</svg>
