<svg width="56" height="9" viewBox="0 0 56 9" fill="none" xmlns="http://www.w3.org/2000/svg">
<path d="M4.31947 1.49709C-0.30018 3.79551 -0.857724 4.53694 0.974205 6.3905C2.80613 8.3182 3.52298 8.16992 3.84157 5.79736C4.00087 4.53694 4.63806 3.64723 5.43456 3.49894C6.46999 3.35066 6.70894 3.57308 6.39034 4.31451C5.75315 5.8715 7.34613 8.3182 9.33736 8.91134C11.0896 9.43034 14.0367 7.57678 14.0367 5.79736C14.0367 4.46279 14.8331 4.61108 16.904 6.3905C19.0546 8.24406 20.8068 7.72506 19.6121 5.50079C18.497 3.57308 13.4791 0.607385 10.4524 0.0883865C8.77982 -0.208183 6.94789 0.236671 4.31947 1.49709Z" fill="black"/>
<path d="M41.0997 1.60489C38.3693 3.4914 36.3411 6.43435 37.1992 7.26441C37.5112 7.49079 38.6814 6.96257 39.7735 5.90613C41.3337 4.54784 41.9578 4.32146 42.2698 5.15152C42.8159 6.73619 45.3902 9 46.6384 9C48.0426 9 50.2269 6.13251 50.2269 4.32146C50.2269 3.56686 50.5389 2.96318 50.929 2.96318C52.0211 2.96318 52.9572 4.6233 52.7232 6.13251C52.4112 8.01902 54.2834 7.79264 55.5316 5.90613C58.4959 1.30305 46.6384 -2.16813 41.0997 1.60489Z" fill="black"/>
</svg>
