<svg width="281" height="93" viewBox="0 0 281 93" fill="none" xmlns="http://www.w3.org/2000/svg">
<path d="M136.982 28.9399C146.438 28.9399 153.796 30.3823 160.778 32.2856C167.646 34.1578 174.609 36.6295 182.535 38.4497L182.675 38.481L182.818 38.4937C228.943 42.2979 256.601 62.7859 276.675 91.0005H3.35742C19.6571 61.6587 42.8402 42.9825 80.4268 34.4126C96.4401 30.7615 115.095 28.9399 136.982 28.9399Z" fill="#9287FF" stroke="black" stroke-width="4"/>
<path d="M68.9122 36.581L78.0653 16.9843C78.2839 16.5162 78.8272 16.2935 79.3143 16.4659C117.241 29.8909 151.743 28.9455 183.718 20.0449C184.12 19.9329 184.55 20.0811 184.797 20.4183L198.729 39.4708C199.112 39.9945 198.917 40.7329 198.313 40.9701C164.706 54.1665 101.645 51.9233 69.3968 37.9042C68.8853 37.6818 68.6761 37.0864 68.9122 36.581Z" fill="#E0DDFF" stroke="black" stroke-width="4"/>
</svg>
