<svg width="71" height="88.4" viewBox="0 0 710 884" fill="none" xmlns="http://www.w3.org/2000/svg">
<path d="M348.576 0.0576433C187.006 3.21324 57 135.175 57 297.5V571.5C57 662.477 97.8377 743.915 162.181 798.485C122.069 819.008 87.2302 848.369 60.2324 884H0V355C5.40682e-05 161.085 155.479 3.48413 348.576 0.0576433Z" fill="currentColor"/>
<path d="M355 2.61247e-05C551.061 2.61247e-05 710 158.939 710 355V529C710 644.097 655.224 746.4 570.32 811.266C562.829 806.568 555.113 802.196 547.193 798.167C611.32 743.598 652 662.3 652 571.5V297.5C652 133.278 518.938 0.133473 354.747 2.61247e-05C354.831 -3.26558e-05 354.916 2.61247e-05 355 2.61247e-05Z" fill="currentColor"/>
<path d="M355 0C551.061 0 710 158.939 710 355V385H328.487L307 278L285.513 385H274.661L222.5 215L170.339 385H0V355C1.03138e-05 158.939 158.939 0 355 0Z" fill="color-mix(in srgb, currentColor 80%, white)"/>
</svg>
