<svg width="71" height="108.3" viewBox="0 0 710 1083" fill="none" xmlns="http://www.w3.org/2000/svg">
<path d="M355 0C551.061 0 710 158.939 710 355V1082.5C710 960.796 636.92 856.161 532.248 810.083C604.935 755.842 652 669.168 652 571.5V299.5C652 135.195 518.805 2 354.5 2C190.195 2 57 135.195 57 299.5V571.5C57 669.335 104.226 756.138 177.124 810.36C72.7882 856.58 1.42917e-06 961.039 0 1082.5V355C1.8307e-05 158.939 158.939 0 355 0Z" fill="currentColor"/>
<path d="M684 162C684 72.5299 611.47 0 522 0H355V153C355 247.441 431.559 324 526 324H684V162Z" fill="color-mix(in srgb, currentColor 70%, white)"/>
<path d="M684 162C684 72.5299 611.47 0 522 0H355V113C355 207.441 431.559 284 526 284H684V162Z" fill="color-mix(in srgb, currentColor 60%, white)"/>
<path d="M26 162C26 72.5299 98.5299 0 188 0H355V153C355 247.441 278.441 324 184 324H26V162Z" fill="color-mix(in srgb, currentColor 70%, white)"/>
<path d="M26 162C26 72.5299 98.5299 0 188 0H355V113C355 207.441 278.441 284 184 284H26V162Z" fill="color-mix(in srgb, currentColor 60%, white)"/>
</svg>
