<svg width="108.2" height="113.5" viewBox="0 0 1082 1135" fill="none" xmlns="http://www.w3.org/2000/svg">
<path d="M966.55 471.088C997.376 486.368 1010.21 523.859 995.225 554.827C980.235 585.795 943.094 598.513 912.269 583.233L815.548 535.29V456.5C815.548 434.656 813.192 413.361 808.724 392.856L966.55 471.088Z" fill="currentColor"/>
<path d="M979.551 644.433C1006.78 666.643 1011.23 707.029 989.496 734.638C967.761 762.246 928.069 766.621 900.842 744.411L815.548 674.834V510.65L979.551 644.433Z" fill="currentColor"/>
<path d="M977.879 839.34C1002.47 867.238 1000.14 910.191 972.693 935.276C945.243 960.362 903.057 958.082 878.471 930.184L796.047 836.657C808.645 803.686 815.548 767.899 815.548 730.5V655.143L977.879 839.34Z" fill="currentColor"/>
<path d="M881.055 1034.42C892.851 1065.91 877.009 1101.31 845.671 1113.49C814.332 1125.68 779.364 1110.03 767.567 1078.54L719.269 949.627C756.757 915.184 785.381 871.247 801.33 821.626L881.055 1034.42Z" fill="currentColor"/>
<path fill-rule="evenodd" clip-rule="evenodd" d="M223.309 771.195C231.389 830.266 256.809 883.814 294.27 926.541L229.932 1095.12C217.951 1126.52 182.787 1142.25 151.393 1130.27C119.999 1118.29 104.261 1083.13 116.243 1051.73L223.309 771.195Z" fill="currentColor"/>
<path fill-rule="evenodd" clip-rule="evenodd" d="M220.548 730.5C220.548 762.698 225.664 793.7 235.125 822.74L133.929 949.311C111.471 977.399 70.4951 981.965 42.4064 959.507C14.3178 937.049 9.75339 896.073 32.211 867.984L220.548 632.424V730.5Z" fill="currentColor"/>
<path d="M220.548 681.559L106.055 761.186C75.4469 782.472 33.3777 774.916 12.0908 744.309C-9.19555 713.701 -1.63946 671.633 28.9678 650.346L220.548 517.106V681.559Z" fill="currentColor"/>
<path d="M227.19 393.694C222.839 413.941 220.548 434.953 220.548 456.5V539.757L102.171 591.459C68.9713 605.959 30.3029 590.8 15.8027 557.601C1.30265 524.401 16.4616 485.733 49.6611 471.232L227.19 393.694Z" fill="currentColor"/>
<path d="M203.548 310.276C203.548 138.915 342.463 0 513.824 0C685.184 0 824.099 138.915 824.099 310.276V433.479H203.548V310.276Z" fill="color-mix(in srgb, currentColor 80%, white)"/>
<rect x="588.718" y="305.386" width="492.83" height="128.095" rx="64.0473" fill="color-mix(in srgb, currentColor 80%, white)"/>
<mask id="mask0_134_151" style="mask-type:alpha" maskUnits="userSpaceOnUse" x="203" y="0" width="622" height="580">
<path d="M203.548 310.276C203.548 138.915 342.463 0 513.824 0C685.184 0 824.099 138.915 824.099 310.276V579.21H203.548V310.276Z" fill="color-mix(in srgb, currentColor 70%, white)"/>
</mask>
<g mask="url(#mask0_134_151)">
<ellipse cx="750.877" cy="68.2235" rx="148.785" ry="206.529" fill="color-mix(in srgb, currentColor 60%, white)"/>
</g>
<mask id="mask1_134_151" style="mask-type:alpha" maskUnits="userSpaceOnUse" x="203" y="0" width="622" height="434">
<path d="M203.548 310.276C203.548 138.915 342.463 0 513.824 0V0C685.184 0 824.099 138.915 824.099 310.276V433.479H203.548V310.276Z" fill="color-mix(in srgb, currentColor 80%, white)"/>
</mask>
<g mask="url(#mask1_134_151)">
<rect x="203.548" width="385.17" height="862.317" rx="192.585" fill="color-mix(in srgb, currentColor 60%, white)"/>
</g>
<path d="M386.771 197.712C433.304 197.712 471.027 235.435 471.027 281.968V380.571H302.515V281.968C302.515 235.435 340.238 197.712 386.771 197.712Z" fill="color-mix(in srgb, currentColor 80%, black)"/>
</svg>
