<svg width="139.4" height="71.3" viewBox="0 0 1394 713" fill="none" xmlns="http://www.w3.org/2000/svg">
<path d="M1205.03 329C1308.86 329 1393.03 413.17 1393.03 517V705H1094.75C1056.67 705 1021.22 693.672 991.609 674.203C992.086 667.363 992.331 660.459 992.331 653.5V379.5C992.331 362.286 990.846 345.414 988 329H1205.03Z" fill="color-mix(in srgb, currentColor 82%, black)"/>
<path d="M398.507 343C398.171 348.79 398 354.625 398 360.5V634.5C398 648.617 398.983 662.505 400.885 676.098C369.985 699.27 331.596 713 290 713H0V528C0 425.827 82.8273 343 185 343H398.507Z" fill="color-mix(in srgb, currentColor 82%, black)"/>
<path d="M397 404L359.501 404.001C325.535 404.001 298 376.466 298 342.501C298 308.535 325.534 281.001 359.5 281.001L397 281V404Z" fill="#EB4242"/>
<path d="M992 441L1029.5 441.001C1063.47 441.001 1091 413.466 1091 379.501C1091 345.535 1063.47 318.001 1029.5 318.001L992 318V441Z" fill="#EB4242"/>
<path d="M347 200C347 89.543 436.543 0 547 0H692V243C692 298.228 647.228 343 592 343H347V200Z" fill="currentColor"/>
<path d="M1034 200C1034 89.543 944.457 0 834 0H692V243C692 298.228 736.772 343 792 343H1034V200Z" fill="currentColor"/>
<path d="M810 312C771.543 302.245 728.279 262.931 720 218" stroke="color-mix(in srgb, currentColor 82%, white)" stroke-width="16" stroke-linecap="round"/>
</svg>
