<svg width="76.6" height="44.4" viewBox="0 0 766 444" fill="none" xmlns="http://www.w3.org/2000/svg">
<path d="M127.248 151C95.5134 198.317 77 255.246 77 316.5V444H62C50.402 444 41 434.598 41 423V358.416C15.8943 336.777 0 304.745 0 269C0 203.83 52.8304 151 118 151H127.248ZM648 151C713.17 151 766 203.83 766 269C766 312.262 742.718 350.087 708 370.628V423C708 434.598 698.598 444 687 444H672V316.5C672 255.246 653.487 198.317 621.752 151H648Z" fill="#6E3121"/>
<path d="M189 123.5C189 55.2928 244.293 0 312.5 0H707V123.5C707 191.707 651.707 247 583.5 247H312.5C244.293 247 189 191.707 189 123.5Z" fill="#7F3D2B"/>
<ellipse cx="143" cy="128.5" rx="123" ry="123.5" fill="#7F3D2B"/>
<rect x="296" y="138" width="302" height="41" rx="20.5" fill="#D9D9D9" fill-opacity="0.35"/>
</svg>
