<svg width="100" height="14" viewBox="0 0 100 14" fill="none" xmlns="http://www.w3.org/2000/svg">
<path d="M3.53418 1.97461H11.1906V11.4244H3.53418V1.97461Z" fill="white"/>
<path d="M10.8957 0.307249C11.2844 1.041 11.0842 1.77475 11.4847 2.53073C10.5697 3.39424 9.51156 2.77933 8.2454 2.88761C6.59737 3.02948 5.34001 3.22264 3.7546 3.72142C3.44755 7.0734 3.44755 7.0734 4.63804 10.1487C6.77888 11.3105 8.36646 11.0599 10.8221 10.9477C11.2108 11.1312 11.5995 11.3146 12 11.5036C11.6113 12.2373 11.2226 12.9711 10.8221 13.7271C5.1233 14.2054 5.1233 14.2054 2.87117 12.4764C0.923834 10.4546 0.319669 9.56358 0 6.84819C0.320286 3.92602 1.53567 2.31672 3.90184 0.455682C6.12211 -0.401585 8.50659 0.192593 10.8957 0.307249Z" fill="black"/>
<rect x="89.1709" y="2.74707" width="7.60976" height="9.33903" fill="white"/>
<path d="M91.9512 0C94.2374 0.0383129 95.5667 0.378331 97.3659 1.7854C98.9597 3.56421 99.6485 4.695 100 7.00427C99.5912 9.69004 98.4214 11.3158 96.3049 13.1351C94.7302 14.0403 93.7808 14.042 91.9512 13.9742C91.4291 13.9593 90.9069 13.9445 90.3689 13.9291C89.9735 13.91 89.5781 13.8909 89.1707 13.8712C88.7844 13.1461 88.398 12.4209 88 11.6738C89.486 11.2447 90.5227 11.1351 92.0976 11.2274C93.8731 11.2511 93.8731 11.2511 95.2439 10.3347C96.641 8.26713 96.3906 6.47026 96.1951 4.08582C96.1478 4.08582 96.1951 4.08582 95.9024 3.5708C95.9024 3.20823 95.3171 3.02145 95.0244 2.88411C93.0927 2.88411 91.161 2.88411 89.1707 2.88411C89.1707 0.173962 89.1707 0.173962 91.9512 0Z" fill="black"/>
</svg>
