<svg width="96" height="21" viewBox="0 0 96 21" fill="none" xmlns="http://www.w3.org/2000/svg">
<path d="M8.49998 2.2462C8.49998 2.2462 8.99168 3.07806 9.12862 3.4332C9.26556 3.78833 9.22045 3.86414 9.22045 3.86414C9.17103 3.64101 9.5457 15.7783 9.22045 17.2569L8.52719 18.847C7.68415 18.972 4.52725 18.9015 2.68223 18.847L1.53711 1.80371H8.12283L8.49998 2.2462Z" fill="white"/>
<path d="M4.75125 0.041592C6.1713 0.307236 7.19011 0.822568 8.37511 1.77203C8.9788 2.89883 8.9788 2.89882 9.25321 3.83246C7.73459 4.40889 7.19074 4.42068 5.71338 3.6071C5.07498 3.20869 5.07498 3.20869 4.42368 2.80224C3.84413 2.80224 3.26459 2.80224 2.66749 2.80224C2.42117 5.69213 3.19658 7.59115 4.42368 10.0137C4.56856 10.1837 4.71345 10.3537 4.86273 10.5288C4.82313 11.6572 4.75443 12.7842 4.67064 13.9092C4.62593 14.5261 4.58122 15.143 4.53515 15.7785C4.49837 16.2559 4.46158 16.7333 4.42368 17.2252C4.85834 17.3952 5.29299 17.5652 5.74082 17.7403C6.1619 17.4854 6.1619 17.4854 6.59148 17.2252C7.49701 16.7101 7.49701 16.7101 8.48487 16.9033C8.73842 17.0095 8.99197 17.1158 9.25321 17.2252C8.61483 19.1998 7.80083 19.9464 6.17987 20.831C5.05481 21.0563 5.05481 21.0563 3.98463 20.831C3.03965 20.004 3.03965 20.004 2.22844 18.7706C2.11868 17.1367 2.11868 17.1367 2.22844 15.2936C2.3061 12.4514 2.12935 10.8104 0.89929 8.4C0.110344 6.62311 -0.0890518 4.7876 0.033199 2.80224C1.07468 0.0807343 2.40293 -0.12181 4.75125 0.041592Z" fill="black"/>
<path d="M88.3023 18.9907L86.7656 17.7029V3.79506L87.6437 1.99219H93.7904V18.2181L93.5709 18.9907H88.3023Z" fill="white"/>
<path d="M94.2626 0.158061C95.5798 1.18827 95.5798 1.18827 95.964 3.05554C96.1784 5.76927 95.4218 8.06627 94.2129 10.3556C93.4907 12.4607 93.8636 14.7657 93.9642 16.9956C93.8236 18.7019 93.8236 18.7019 93.0364 19.9555C92.0674 20.7623 92.0674 20.7623 90.5582 20.7945C88.7564 20.1641 87.9996 19.3366 86.7988 17.6717C87.5123 17.0922 87.5123 17.0922 88.555 16.6415C89.9819 17.0922 89.9819 17.0922 91.1893 17.6717C91.6229 15.9194 91.5838 14.6086 91.3265 12.8426C91.0229 10.2085 91.6748 9.00298 92.9455 6.85445C93.5401 5.45913 93.4131 4.27411 93.3845 2.7336C91.2968 2.98458 91.2968 2.98458 89.3508 3.8282C88.555 4.27892 88.555 4.27892 87.5672 4.08575C87.3136 3.97951 87.0601 3.87327 86.7988 3.76381C87.2433 2.25158 87.6609 1.71619 88.802 0.801945C90.6498 0.0136182 92.3135 -0.177331 94.2626 0.158061Z" fill="black"/>
</svg>
