<svg width="87" height="118" viewBox="0 0 87 118" fill="none" xmlns="http://www.w3.org/2000/svg">
<path d="M12.4 14.1177L6.5 21.5L3 29.5L1.5 37.5L0.5 46L0 61.3857C2.8877 92.0225 4.4 94.5225 14.8 105.826C24 114.31 31.2 117.138 43.6 117.138C73.8877 114.522 84.7941 103.007 86.6064 57.0225C87 23.5 81.4816 17.0072 67.0908 6.52246C46.6908 -3.98154 28.4 -2.04233 12.4 14.1177ZM72.5908 16.0225C84.1908 28.1425 83.0908 30.0225 82.4 60.9817C81.2 90.8777 77.5908 93.5225 70 103.402C54.8 116.734 30.4 116.734 17.2 103.402C6.4 92.4937 1.2 65.0217 4.4 39.1657C9.2 4.42168 47.7908 -8.62154 72.5908 16.0225Z" fill="black"/>
<path d="M72.5908 16.0225C84.1908 28.1425 83.0908 30.0225 82.4 60.9817C81.2 90.8777 77.5908 93.5225 70 103.402C54.8 116.734 30.4 116.734 17.2 103.402C6.4 92.4937 1.2 65.0217 4.4 39.1657C9.2 4.42168 47.7908 -8.62154 72.5908 16.0225Z" fill="white"/>
</svg>
